<svg width="32" height="32" viewBox="0 0 32 32" fill="none" xmlns="http://www.w3.org/2000/svg">
<path d="M22.8182 7.8186C22.2877 7.81784 21.7656 7.95071 21.3 8.20496C21.1318 7.68387 20.8319 7.215 20.4294 6.84373C20.0269 6.47246 19.5354 6.21135 19.0024 6.08565C18.4695 5.95996 17.9131 5.97393 17.3871 6.12623C16.8611 6.27852 16.3834 6.56398 16 6.95499C15.5576 6.50349 14.9908 6.19399 14.3718 6.06596C13.7528 5.93792 13.1096 5.99716 12.5244 6.23611C11.9392 6.47506 11.4385 6.8829 11.086 7.40761C10.7335 7.93232 10.5454 8.55011 10.5455 9.18221V11.4549H9.18182C8.33795 11.4549 7.52864 11.7901 6.93193 12.3868C6.33523 12.9835 6 13.7928 6 14.6366V16.0002C6 18.6523 7.05357 21.1958 8.92893 23.0711C10.8043 24.9465 13.3478 26 16 26C18.6522 26 21.1957 24.9465 23.0711 23.0711C24.9464 21.1958 26 18.6523 26 16.0002V11.0003C26 10.1565 25.6648 9.34721 25.0681 8.75052C24.4714 8.15382 23.6621 7.8186 22.8182 7.8186ZM24.1818 16.0002C24.1818 18.1701 23.3198 20.2512 21.7854 21.7855C20.251 23.3199 18.17 24.1819 16 24.1819C13.83 24.1819 11.749 23.3199 10.2146 21.7855C8.68019 20.2512 7.81818 18.1701 7.81818 16.0002V14.6366C7.81818 14.275 7.96185 13.9281 8.21758 13.6724C8.47331 13.4167 8.82016 13.273 9.18182 13.273H10.5455V16.0002C10.5455 16.2413 10.6412 16.4726 10.8117 16.643C10.9822 16.8135 11.2134 16.9093 11.4545 16.9093C11.6957 16.9093 11.9269 16.8135 12.0974 16.643C12.2679 16.4726 12.3636 16.2413 12.3636 16.0002V9.18221C12.3636 8.82056 12.5073 8.47372 12.763 8.218C13.0188 7.96227 13.3656 7.8186 13.7273 7.8186C14.0889 7.8186 14.4358 7.96227 14.6915 8.218C14.9472 8.47372 15.0909 8.82056 15.0909 9.18221V12.364C15.0909 12.6051 15.1867 12.8363 15.3572 13.0068C15.5277 13.1772 15.7589 13.273 16 13.273C16.2411 13.273 16.4723 13.1772 16.6428 13.0068C16.8133 12.8363 16.9091 12.6051 16.9091 12.364V9.18221C16.9091 8.82056 17.0528 8.47372 17.3085 8.218C17.5642 7.96227 17.9111 7.8186 18.2727 7.8186C18.6344 7.8186 18.9812 7.96227 19.237 8.218C19.4927 8.47372 19.6364 8.82056 19.6364 9.18221V12.364C19.6364 12.6051 19.7321 12.8363 19.9026 13.0068C20.0731 13.1772 20.3043 13.273 20.5455 13.273C20.7866 13.273 21.0178 13.1772 21.1883 13.0068C21.3588 12.8363 21.4545 12.6051 21.4545 12.364V11.0003C21.4545 10.6387 21.5982 10.2919 21.8539 10.0361C22.1097 9.78041 22.4565 9.63674 22.8182 9.63674C23.1798 9.63674 23.5267 9.78041 23.7824 10.0361C24.0381 10.2919 24.1818 10.6387 24.1818 11.0003V16.0002Z" fill="#CAB9B9"/>
</svg>
