<svg width="50" height="51" viewBox="0 0 50 51" fill="none" xmlns="http://www.w3.org/2000/svg">
<path d="M18.3154 4.49609L35.455 4.49875L34.2683 35.4365L19.0899 35.4341L18.3154 4.49609Z" fill="#A45216"/>
<path d="M18.3157 4.49566L12.0836 1.54823L13.637 33.223L19.0901 35.4337L18.3157 4.49566Z" fill="#814D27"/>
<ellipse cx="4.78572" cy="4.52493" rx="4.78572" ry="4.52493" transform="matrix(1 0.000154947 -0.000150264 1 22.0977 22.5962)" fill="#070707"/>
<path d="M30.5132 27.1224C30.5129 29.6215 29.533 31.6472 26.8871 31.6468C24.2412 31.6464 22.0966 29.6202 22.097 27.1211C22.0974 24.6221 24.2426 22.5965 26.8885 22.5969C29.5343 22.5973 30.5136 24.6234 30.5132 27.1224Z" fill="#3A3636"/>
<ellipse cx="2.47537" cy="2.3036" rx="2.47537" ry="2.3036" transform="matrix(1 0.000154947 -0.000150264 1 24.4067 24.7358)" fill="black"/>
<path d="M28.367 27.0401C28.3668 28.3123 28.2998 29.3436 26.9144 29.3434C25.5291 29.3432 24.4062 28.3117 24.4064 27.0394C24.4066 25.7672 25.5298 24.736 26.9151 24.7362C28.3005 24.7364 28.3672 25.7678 28.367 27.0401Z" fill="#242424"/>
<ellipse cx="5.56479" cy="5.26155" rx="5.56479" ry="5.26155" transform="matrix(1 0.000154947 -0.000150264 1 21.209 8.70557)" fill="#070707"/>
<path d="M30.9946 13.9686C30.9941 16.8745 29.8547 19.23 26.7781 19.2295C23.7015 19.2291 21.2078 16.873 21.2082 13.9671C21.2086 11.0612 23.7031 8.70595 26.7797 8.70643C29.8563 8.70691 30.995 11.0628 30.9946 13.9686Z" fill="#3A3636"/>
<ellipse cx="2.87834" cy="2.67861" rx="2.87834" ry="2.67861" transform="matrix(1 0.000154947 -0.000150264 1 23.895 11.1934)" fill="black"/>
<path d="M28.5 13.8727C28.4997 15.352 28.4218 16.5513 26.8109 16.551C25.2001 16.5508 23.8944 15.3513 23.8946 13.872C23.8948 12.3926 25.2009 11.1936 26.8117 11.1938C28.4226 11.1941 28.5002 12.3933 28.5 13.8727Z" fill="#242424"/>
<path d="M35.4514 31.7531L36.1185 37.0148L28.9956 35.8814L34.83 35.8824L35.4514 31.7531Z" fill="#A45216"/>
<path d="M33.2309 0.920152L38.1346 3.41881L35.9003 9.33904L36.6548 4.31817L33.2309 0.920152Z" fill="#A45216"/>
<path d="M15.864 35.4332L10.8558 34.4036L12.891 30.5921L12.8907 33.5538L15.864 35.4332Z" fill="#814D27"/>
<path d="M2.735 49C2.165 49 1.72 48.885 1.4 48.655C1.08333 48.425 0.885 48.07 0.805 47.59C0.791667 47.4433 0.821667 47.3333 0.895 47.26C0.968333 47.1867 1.075 47.15 1.215 47.15C1.355 47.15 1.45667 47.1833 1.52 47.25C1.58667 47.3167 1.63167 47.42 1.655 47.56C1.705 47.79 1.81167 47.9483 1.975 48.035C2.14167 48.1183 2.395 48.16 2.735 48.16H4.175C4.605 48.16 4.89667 48.0833 5.05 47.93C5.20667 47.7733 5.285 47.4833 5.285 47.06C5.285 46.63 5.205 46.3367 5.045 46.18C4.885 46.02 4.595 45.94 4.175 45.94H2.935C2.305 45.94 1.83667 45.7867 1.53 45.48C1.22667 45.17 1.075 44.7 1.075 44.07C1.075 43.4433 1.225 42.9783 1.525 42.675C1.82833 42.3717 2.295 42.22 2.925 42.22H4.115C4.645 42.22 5.06 42.3283 5.36 42.545C5.66333 42.7617 5.855 43.0933 5.935 43.54C5.955 43.6833 5.92833 43.7933 5.855 43.87C5.78167 43.9433 5.67167 43.98 5.525 43.98C5.39167 43.98 5.29167 43.945 5.225 43.875C5.15833 43.805 5.115 43.7033 5.095 43.57C5.04167 43.3733 4.94 43.24 4.79 43.17C4.64 43.0967 4.415 43.06 4.115 43.06H2.925C2.525 43.06 2.25667 43.1317 2.12 43.275C1.98333 43.415 1.915 43.68 1.915 44.07C1.915 44.4633 1.985 44.7333 2.125 44.88C2.265 45.0267 2.535 45.1 2.935 45.1H4.175C4.83167 45.1 5.32 45.26 5.64 45.58C5.96333 45.9 6.125 46.3933 6.125 47.06C6.125 47.7233 5.965 48.2133 5.645 48.53C5.325 48.8433 4.835 49 4.175 49H2.735ZM9.68383 49C9.02049 49 8.52716 48.84 8.20383 48.52C7.88383 48.2 7.72383 47.71 7.72383 47.05V45.89C7.72383 45.22 7.88383 44.7267 8.20383 44.41C8.52716 44.09 9.02049 43.93 9.68383 43.93H10.5038C11.1705 43.93 11.6638 44.09 11.9838 44.41C12.3038 44.73 12.4638 45.2233 12.4638 45.89V47.04C12.4638 47.7033 12.3038 48.1967 11.9838 48.52C11.6638 48.84 11.1705 49 10.5038 49H9.68383ZM8.56383 47.05C8.56383 47.48 8.64216 47.7733 8.79883 47.93C8.95549 48.0833 9.25049 48.16 9.68383 48.16H10.5038C10.9405 48.16 11.2355 48.0817 11.3888 47.925C11.5455 47.7683 11.6238 47.4733 11.6238 47.04V45.89C11.6238 45.4533 11.5455 45.1583 11.3888 45.005C11.2355 44.8483 10.9405 44.77 10.5038 44.77H9.68383C9.39383 44.77 9.16716 44.8033 9.00383 44.87C8.84383 44.9333 8.73049 45.0467 8.66383 45.21C8.59716 45.37 8.56383 45.5967 8.56383 45.89V47.05ZM18.4217 43.93C18.7017 43.93 18.8417 44.07 18.8417 44.35V48.58C18.8417 48.86 18.7017 49 18.4217 49C18.1417 49 18.0017 48.86 18.0017 48.58V48.415C17.6484 48.805 17.1284 49 16.4417 49H16.1617C15.4984 49 15.0051 48.84 14.6817 48.52C14.3617 48.1967 14.2017 47.7033 14.2017 47.04V44.35C14.2017 44.07 14.3417 43.93 14.6217 43.93C14.9017 43.93 15.0417 44.07 15.0417 44.35V47.04C15.0417 47.4733 15.1201 47.7683 15.2767 47.925C15.4367 48.0817 15.7317 48.16 16.1617 48.16H16.4417C16.8417 48.16 17.1901 48.1133 17.4867 48.02C17.7867 47.9267 17.9584 47.7833 18.0017 47.59V44.35C18.0017 44.07 18.1417 43.93 18.4217 43.93ZM21.3428 49C21.0628 49 20.9228 48.86 20.9228 48.58V44.35C20.9228 44.07 21.0628 43.93 21.3428 43.93C21.6228 43.93 21.7628 44.07 21.7628 44.35V44.515C22.1161 44.125 22.6361 43.93 23.3228 43.93H23.6028C24.2695 43.93 24.7628 44.09 25.0828 44.41C25.4028 44.73 25.5628 45.2233 25.5628 45.89V48.58C25.5628 48.86 25.4228 49 25.1428 49C24.8628 49 24.7228 48.86 24.7228 48.58V45.89C24.7228 45.4533 24.6428 45.1583 24.4828 45.005C24.3261 44.8483 24.0328 44.77 23.6028 44.77H23.3228C22.9228 44.77 22.5745 44.8167 22.2778 44.91C21.9811 45 21.8095 45.1433 21.7628 45.34V48.58C21.7628 48.86 21.6228 49 21.3428 49Z" fill="#814D27"/>
<path d="M29.2639 49C28.6006 49 28.1072 48.84 27.7839 48.52C27.4639 48.1967 27.3039 47.7033 27.3039 47.04V45.89C27.3039 45.2233 27.4639 44.73 27.7839 44.41C28.1072 44.09 28.6006 43.93 29.2639 43.93H31.2039V42.38C31.2039 42.1 31.3439 41.96 31.6239 41.96C31.9039 41.96 32.0439 42.1 32.0439 42.38V48.58C32.0439 48.86 31.9039 49 31.6239 49C31.3439 49 31.2039 48.86 31.2039 48.58V48.51C31.0472 48.67 30.8422 48.7917 30.5889 48.875C30.3356 48.9583 30.0206 49 29.6439 49H29.2639ZM29.2639 48.16H29.6439C30.0839 48.16 30.4539 48.1033 30.7539 47.99C31.0539 47.8767 31.2039 47.7033 31.2039 47.47V44.77H29.2639C28.8306 44.77 28.5356 44.85 28.3789 45.01C28.2222 45.1667 28.1439 45.46 28.1439 45.89V47.04C28.1439 47.4733 28.2222 47.7683 28.3789 47.925C28.5389 48.0817 28.8339 48.16 29.2639 48.16ZM34.4483 49C34.1683 49 34.0283 48.86 34.0283 48.58V44.35C34.0283 44.07 34.1683 43.93 34.4483 43.93C34.7283 43.93 34.8683 44.07 34.8683 44.35V44.74C35.0649 44.4733 35.3149 44.2717 35.6183 44.135C35.9249 43.9983 36.2749 43.93 36.6683 43.93C36.9483 43.93 37.0883 44.07 37.0883 44.35C37.0883 44.63 36.9483 44.77 36.6683 44.77C36.0916 44.77 35.6516 44.8767 35.3483 45.09C35.0449 45.3033 34.8849 45.585 34.8683 45.935V48.58C34.8683 48.86 34.7283 49 34.4483 49ZM39.5531 49C38.9931 49 38.5765 48.8633 38.3031 48.59C38.0298 48.3167 37.8931 47.9 37.8931 47.34C37.8931 46.78 38.0281 46.3633 38.2981 46.09C38.5715 45.8167 38.9898 45.68 39.5531 45.68H41.6681C41.6481 45.33 41.5565 45.0917 41.3931 44.965C41.2298 44.835 40.9498 44.77 40.5531 44.77H39.9731C39.6398 44.77 39.3915 44.7933 39.2281 44.84C39.0648 44.8833 38.9498 44.9633 38.8831 45.08C38.8231 45.22 38.7615 45.3167 38.6981 45.37C38.6348 45.4233 38.5398 45.45 38.4131 45.45C38.2731 45.45 38.1631 45.4117 38.0831 45.335C38.0031 45.255 37.9798 45.15 38.0131 45.02C38.1131 44.6433 38.3215 44.3683 38.6381 44.195C38.9581 44.0183 39.4031 43.93 39.9731 43.93H40.5531C41.2198 43.93 41.7131 44.09 42.0331 44.41C42.3531 44.73 42.5131 45.2233 42.5131 45.89V48.58C42.5131 48.86 42.3731 49 42.0931 49C41.8131 49 41.6731 48.86 41.6731 48.58V48.355C41.3165 48.785 40.7965 49 40.1131 49H39.5531ZM39.5531 48.16H40.1131C40.3598 48.16 40.5915 48.1383 40.8081 48.095C41.0248 48.0483 41.2098 47.965 41.3631 47.845C41.5198 47.725 41.6231 47.5533 41.6731 47.33V46.52H39.5531C39.2231 46.52 39.0031 46.575 38.8931 46.685C38.7865 46.795 38.7331 47.0133 38.7331 47.34C38.7331 47.67 38.7865 47.89 38.8931 48C39.0031 48.1067 39.2231 48.16 39.5531 48.16ZM45.697 51C45.2937 51 44.9754 50.9183 44.742 50.755C44.512 50.5917 44.3637 50.3433 44.297 50.01C44.2737 49.87 44.2987 49.76 44.372 49.68C44.4454 49.6 44.557 49.56 44.707 49.56C44.8337 49.56 44.9254 49.5933 44.982 49.66C45.042 49.73 45.0937 49.8333 45.137 49.97C45.177 50.0433 45.2387 50.0933 45.322 50.12C45.4087 50.1467 45.5337 50.16 45.697 50.16H47.557C47.807 50.16 47.9687 50.12 48.042 50.04C48.1187 49.9633 48.157 49.8033 48.157 49.56V48.395C47.977 48.5917 47.7537 48.7417 47.487 48.845C47.2237 48.9483 46.927 49 46.597 49H46.217C45.5537 49 45.0604 48.84 44.737 48.52C44.417 48.2 44.257 47.71 44.257 47.05V45.89C44.257 45.22 44.4154 44.7267 44.732 44.41C45.052 44.09 45.547 43.93 46.217 43.93H47.037C47.2737 43.93 47.4854 43.965 47.672 44.035C47.862 44.105 48.0237 44.2117 48.157 44.355V44.35C48.157 44.07 48.297 43.93 48.577 43.93C48.857 43.93 48.997 44.07 48.997 44.35V49.56C48.997 50.05 48.8787 50.4117 48.642 50.645C48.4087 50.8817 48.047 51 47.557 51H45.697ZM46.217 48.16H46.597C47.037 48.16 47.407 48.105 47.707 47.995C48.007 47.885 48.157 47.71 48.157 47.47V45.47C48.157 45.2 48.0587 45.0167 47.862 44.92C47.6687 44.82 47.3937 44.77 47.037 44.77H46.217C45.787 44.77 45.492 44.8467 45.332 45C45.1754 45.1533 45.097 45.45 45.097 45.89V47.05C45.097 47.4733 45.1754 47.765 45.332 47.925C45.4887 48.0817 45.7837 48.16 46.217 48.16Z" fill="#A45216"/>
</svg>
