<svg width="135" height="185" viewBox="0 0 135 185" fill="none" xmlns="http://www.w3.org/2000/svg">
<path d="M37.3394 21.355H114.339L109.029 168.355H40.8394L37.3394 21.355Z" fill="#A45216"/>
<path d="M37.3394 21.355L9.33936 7.35498L16.3394 157.855L40.8394 168.355L37.3394 21.355Z" fill="#814D27"/>
<circle cx="75.8394" cy="128.855" r="21.5" fill="#070707"/>
<path d="M92.1497 128.855C92.1497 140.729 87.7489 150.355 75.8622 150.355C63.9754 150.355 54.3394 140.729 54.3394 128.855C54.3394 116.981 63.9754 107.355 75.8622 107.355C87.7489 107.355 92.1497 116.981 92.1497 128.855Z" fill="#3A3636"/>
<ellipse cx="75.8355" cy="128.464" rx="11.1207" ry="10.9455" fill="black"/>
<path d="M82.5079 128.464C82.5079 134.51 82.2075 139.41 75.9838 139.41C69.7601 139.41 64.7148 134.51 64.7148 128.464C64.7148 122.419 69.7601 117.519 75.9838 117.519C82.2075 117.519 82.5079 122.419 82.5079 128.464Z" fill="#242424"/>
<circle cx="75.3394" cy="66.355" r="25" fill="#070707"/>
<path d="M94.3049 66.355C94.3049 80.1621 89.1876 91.355 75.3659 91.355C61.5441 91.355 50.3394 80.1621 50.3394 66.355C50.3394 52.5479 61.5441 41.355 75.3659 41.355C89.1876 41.355 94.3049 52.5479 94.3049 66.355Z" fill="#3A3636"/>
<ellipse cx="75.3412" cy="65.9006" rx="12.931" ry="12.7273" fill="black"/>
<path d="M83.0998 65.9006C83.0998 72.9297 82.7504 78.6279 75.5136 78.6279C68.2768 78.6279 62.4102 72.9297 62.4102 65.9006C62.4102 58.8715 68.2768 53.1733 75.5136 53.1733C82.7504 53.1733 83.0998 58.8715 83.0998 65.9006Z" fill="#242424"/>
<path d="M114.34 150.855L117.34 175.855L85.3396 170.475L111.55 170.475L114.34 150.855Z" fill="#A45216"/>
<path d="M104.34 4.35495L126.372 16.2236L116.338 44.3549L119.724 20.4979L104.34 4.35495Z" fill="#A45216"/>
<path d="M26.3401 168.355L3.83993 163.466L12.9803 145.355L12.9811 159.427L26.3401 168.355Z" fill="#814D27"/>
</svg>
