<svg width="32" height="32" viewBox="0 0 32 32" fill="none" xmlns="http://www.w3.org/2000/svg">
<path d="M24 29H8C7.46957 29 6.96086 28.7893 6.58579 28.4142C6.21071 28.0391 6 27.5304 6 27V5C6 4.46957 6.21071 3.96086 6.58579 3.58579C6.96086 3.21071 7.46957 3 8 3H24C24.5304 3 25.0391 3.21071 25.4142 3.58579C25.7893 3.96086 26 4.46957 26 5V27C26 27.5304 25.7893 28.0391 25.4142 28.4142C25.0391 28.7893 24.5304 29 24 29ZM24 5H8V27H24V5ZM14.5 22.5C14.5 22.7967 14.588 23.0867 14.7528 23.3334C14.9176 23.58 15.1519 23.7723 15.426 23.8858C15.7001 23.9994 16.0017 24.0291 16.2926 23.9712C16.5836 23.9133 16.8509 23.7704 17.0607 23.5607C17.2704 23.3509 17.4133 23.0836 17.4712 22.7926C17.5291 22.5017 17.4993 22.2001 17.3858 21.926C17.2723 21.6519 17.08 21.4176 16.8334 21.2528C16.5867 21.088 16.2967 21 16 21C15.6022 21 15.2206 21.158 14.9393 21.4393C14.658 21.7206 14.5 22.1022 14.5 22.5ZM16 8C16.9889 8 17.9556 8.29324 18.7779 8.84265C19.6001 9.39206 20.241 10.173 20.6194 11.0866C20.9978 12.0002 21.0969 13.0055 20.9039 13.9755C20.711 14.9454 20.2348 15.8363 19.5355 16.5355C18.8363 17.2348 17.9454 17.711 16.9755 17.9039C16.0055 18.0969 15.0002 17.9978 14.0866 17.6194C13.173 17.241 12.3921 16.6001 11.8427 15.7779C11.2932 14.9556 11 13.9889 11 13C11 12.3434 11.1293 11.6932 11.3806 11.0866C11.6319 10.48 12.0002 9.92876 12.4645 9.46447C13.4021 8.52678 14.6739 8 16 8ZM16 16C16.5933 16 17.1734 15.8241 17.6667 15.4944C18.1601 15.1648 18.5446 14.6962 18.7716 14.1481C18.9987 13.5999 19.0581 12.9967 18.9424 12.4147C18.8266 11.8328 18.5409 11.2982 18.1213 10.8787C17.7018 10.4591 17.1672 10.1734 16.5853 10.0576C16.0033 9.94189 15.4001 10.0013 14.8519 10.2284C14.3038 10.4554 13.8352 10.8399 13.5056 11.3333C13.1759 11.8266 13 12.4067 13 13C13 13.7956 13.3161 14.5587 13.8787 15.1213C14.4413 15.6839 15.2044 16 16 16Z" fill="#CAB9B9"/>
<path d="M28.4121 7L4.00011 24.4371" stroke="#CAB9B9" stroke-width="2" stroke-linecap="round"/>
<path d="M28.6274 24.1318L4.00024 6.99996" stroke="#CAB9B9" stroke-width="2" stroke-linecap="round"/>
</svg>
