<svg width="32" height="32" viewBox="0 0 32 32" fill="none" xmlns="http://www.w3.org/2000/svg">
<path d="M11.8333 13.7036H6.83333C6.61232 13.7036 6.40036 13.623 6.24408 13.4794C6.0878 13.3358 6 13.1411 6 12.9381V8.34534C6 8.14232 6.0878 7.94762 6.24408 7.80407C6.40036 7.66052 6.61232 7.57987 6.83333 7.57987C7.05435 7.57987 7.26631 7.66052 7.42259 7.80407C7.57887 7.94762 7.66667 8.14232 7.66667 8.34534V11.0905L9.19063 9.69064C11.0492 7.97486 13.5733 7.00709 16.2083 7.00003H16.2635C18.8761 6.99385 21.3862 7.93336 23.25 9.61505C23.4022 9.75806 23.4874 9.9501 23.4874 10.1501C23.4874 10.3501 23.4022 10.5421 23.2501 10.6851C23.0979 10.8282 22.8908 10.9108 22.6732 10.9154C22.4555 10.92 22.2446 10.8461 22.0854 10.7097C20.5319 9.30894 18.4404 8.52628 16.2635 8.53096H16.2167C14.021 8.53717 11.9178 9.34347 10.3688 10.7728L8.84479 12.1727H11.8333C12.0543 12.1727 12.2663 12.2533 12.4226 12.3969C12.5789 12.5404 12.6667 12.7351 12.6667 12.9381C12.6667 13.1411 12.5789 13.3358 12.4226 13.4794C12.2663 13.623 12.0543 13.7036 11.8333 13.7036ZM25.1667 18.2964H20.1667C19.9457 18.2964 19.7337 18.377 19.5774 18.5206C19.4211 18.6642 19.3333 18.8589 19.3333 19.0619C19.3333 19.2649 19.4211 19.4596 19.5774 19.6031C19.7337 19.7467 19.9457 19.8273 20.1667 19.8273H23.1552L21.6313 21.2272C20.0825 22.6563 17.9797 23.4626 15.7844 23.469H15.7375C13.5606 23.4737 11.4692 22.6911 9.91562 21.2903C9.83801 21.2174 9.7453 21.1594 9.64296 21.1199C9.54061 21.0803 9.43069 21.0599 9.31965 21.0599C9.20861 21.0599 9.0987 21.0803 8.99636 21.1199C8.89402 21.1595 8.80132 21.2174 8.72371 21.2904C8.6461 21.3633 8.58514 21.4498 8.54442 21.5447C8.5037 21.6396 8.48404 21.741 8.48658 21.8429C8.48913 21.9449 8.51384 22.0454 8.55925 22.1385C8.60467 22.2315 8.66987 22.3153 8.75104 22.3849C10.6149 24.0666 13.1249 25.0062 15.7375 25H15.7917C18.4263 24.9927 20.95 24.0249 22.8083 22.3094L24.3333 20.9095V23.6547C24.3333 23.8577 24.4211 24.0524 24.5774 24.1959C24.7337 24.3395 24.9457 24.4201 25.1667 24.4201C25.3877 24.4201 25.5996 24.3395 25.7559 24.1959C25.9122 24.0524 26 23.8577 26 23.6547V19.0619C26 18.8589 25.9122 18.6642 25.7559 18.5206C25.5996 18.377 25.3877 18.2964 25.1667 18.2964Z" fill="#CAB9B9"/>
</svg>
