{
  "asset": {
    "generator": "Khronos glTF Blender I/O v3.5.30",
    "version": "2.0"
  },
  "scene": 0,
  "scenes": [
    {
      "name": "Scene",
      "nodes": [0]
    }
  ],
  "nodes": [
    {
      "mesh": 0,
      "name": "Cube.001_Speaker_0",
      "rotation": [0.7071068286895752, 0, 0, 0.7071068286895752],
      "scale": [1.1286734342575073, 1.1286733150482178, 1.1286733150482178],
      "translation": [0, 2, 0]
    }
  ],
  "animations": [
    {
      "channels": [
        {
          "sampler": 0,
          "target": {
            "node": 0,
            "path": "translation"
          }
        },
        {
          "sampler": 1,
          "target": {
            "node": 0,
            "path": "rotation"
          }
        },
        {
          "sampler": 2,
          "target": {
            "node": 0,
            "path": "scale"
          }
        }
      ],
      "name": "Cube.001_Speaker_0",
      "samplers": [
        {
          "input": 5,
          "interpolation": "LINEAR",
          "output": 6
        },
        {
          "input": 5,
          "interpolation": "LINEAR",
          "output": 7
        },
        {
          "input": 5,
          "interpolation": "LINEAR",
          "output": 8
        }
      ]
    }
  ],
  "materials": [
    {
      "doubleSided": true,
      "name": "Speaker.002",
      "pbrMetallicRoughness": {
        "baseColorTexture": {
          "index": 0
        },
        "metallicFactor": 0,
        "metallicRoughnessTexture": {
          "index": 1
        },
        "roughnessFactor": 0.59039705991745
      }
    }
  ],
  "meshes": [
    {
      "name": "Cube.001_Speaker_0",
      "primitives": [
        {
          "attributes": {
            "POSITION": 0,
            "TEXCOORD_0": 1,
            "TEXCOORD_1": 2,
            "NORMAL": 3
          },
          "indices": 4,
          "material": 0
        }
      ]
    }
  ],
  "textures": [
    {
      "sampler": 0,
      "source": 0
    },
    {
      "sampler": 0,
      "source": 1
    }
  ],
  "images": [
    {
      "bufferView": 5,
      "mimeType": "image/png",
      "name": "Image_0"
    },
    {
      "bufferView": 6,
      "mimeType": "image/png",
      "name": "Image_1"
    }
  ],
  "accessors": [
    {
      "bufferView": 0,
      "componentType": 5126,
      "count": 13015,
      "max": [1.089491367340088, 0.9994170069694519, 1.6740409135818481],
      "min": [-0.9994423389434814, -0.9994170665740967, -1.5705647468566895],
      "type": "VEC3"
    },
    {
      "bufferView": 1,
      "componentType": 5126,
      "count": 13015,
      "type": "VEC2"
    },
    {
      "bufferView": 2,
      "componentType": 5126,
      "count": 13015,
      "type": "VEC2"
    },
    {
      "bufferView": 3,
      "componentType": 5126,
      "count": 13015,
      "type": "VEC3"
    },
    {
      "bufferView": 4,
      "componentType": 5123,
      "count": 55296,
      "type": "SCALAR"
    },
    {
      "bufferView": 7,
      "componentType": 5126,
      "count": 169,
      "max": [7],
      "min": [0],
      "type": "SCALAR"
    },
    {
      "bufferView": 8,
      "componentType": 5126,
      "count": 169,
      "type": "VEC3"
    },
    {
      "bufferView": 9,
      "componentType": 5126,
      "count": 169,
      "type": "VEC4"
    },
    {
      "bufferView": 10,
      "componentType": 5126,
      "count": 169,
      "type": "VEC3"
    }
  ],
  "bufferViews": [
    {
      "buffer": 0,
      "byteLength": 156180,
      "byteOffset": 0,
      "target": 34962
    },
    {
      "buffer": 0,
      "byteLength": 104120,
      "byteOffset": 156180,
      "target": 34962
    },
    {
      "buffer": 0,
      "byteLength": 104120,
      "byteOffset": 260300,
      "target": 34962
    },
    {
      "buffer": 0,
      "byteLength": 156180,
      "byteOffset": 364420,
      "target": 34962
    },
    {
      "buffer": 0,
      "byteLength": 110592,
      "byteOffset": 520600,
      "target": 34963
    },
    {
      "buffer": 0,
      "byteLength": 10636,
      "byteOffset": 631192
    },
    {
      "buffer": 0,
      "byteLength": 2790,
      "byteOffset": 641828
    },
    {
      "buffer": 0,
      "byteLength": 676,
      "byteOffset": 644620
    },
    {
      "buffer": 0,
      "byteLength": 2028,
      "byteOffset": 645296
    },
    {
      "buffer": 0,
      "byteLength": 2704,
      "byteOffset": 647324
    },
    {
      "buffer": 0,
      "byteLength": 2028,
      "byteOffset": 650028
    }
  ],
  "samplers": [
    {
      "magFilter": 9729,
      "minFilter": 9987
    }
  ],
  "buffers": [
    {
      "byteLength": 652056,
      "uri": "data:application/octet-stream;base64,"
    }
  ]
}
